<?xml version="1.0" encoding="UTF-8" standalone="no"?>
<svg
   xmlns:dc="http://purl.org/dc/elements/1.1/"
   xmlns:cc="http://creativecommons.org/ns#"
   xmlns:rdf="http://www.w3.org/1999/02/22-rdf-syntax-ns#"
   xmlns:svg="http://www.w3.org/2000/svg"
   xmlns="http://www.w3.org/2000/svg"
   xmlns:sodipodi="http://sodipodi.sourceforge.net/DTD/sodipodi-0.dtd"
   xmlns:inkscape="http://www.inkscape.org/namespaces/inkscape"
   version="1.1"
   id="head-brains"
   x="0px"
   y="0px"
   viewBox="0 0 945.9384 1009.9997"
   enable-background="new 0 0 945.9384 1009.9997"
   xml:space="preserve"
   sodipodi:docname="head1.svg"
   inkscape:version="1.0.1 (1.0.1+r73)"><metadata
   id="metadata1346"><rdf:RDF><cc:Work
       rdf:about=""><dc:format>image/svg+xml</dc:format><dc:type
         rdf:resource="http://purl.org/dc/dcmitype/StillImage" /><dc:title></dc:title></cc:Work></rdf:RDF></metadata><defs
   id="defs1344">
	
	
</defs><sodipodi:namedview
   pagecolor="#ffffff"
   bordercolor="#666666"
   borderopacity="1"
   objecttolerance="10"
   gridtolerance="10"
   guidetolerance="10"
   inkscape:pageopacity="0"
   inkscape:pageshadow="2"
   inkscape:window-width="1853"
   inkscape:window-height="1025"
   id="namedview1342"
   showgrid="false"
   inkscape:zoom="0.56789141"
   inkscape:cx="-2.6936283"
   inkscape:cy="552.23035"
   inkscape:window-x="67"
   inkscape:window-y="27"
   inkscape:window-maximized="1"
   inkscape:current-layer="head-brains-fill" />
<g
   id="head-brains-fill"
   transform="translate(2.4976827,3.8257519)">
		<path
   fill="#ebeef0"
   d="m 289.2973,1003.1882 c 1.6861,-73.5791 -22.3276,-113.7549 -59.6606,-123.2129 -14.624,-8.586 -31.041,-14.6045 -52.4278,-19.0635 l -9.958,-1.8037 c -12.1738,-2.0479 -24.5625,-3.3623 -37.0005,-4.6846 -16.3583,-1.7148 -31.7661,-3.3818 -46.9682,-6.6748 l -7.8897,-1.5 c -18.5742,-3.3818 -27.6206,-5.9005 -30.4531,-13.4668 -3.9306,-11.3214 0.5,-22.8662 8.3701,-40.6367 l 3.4209,-7.9189 c 6.9981,-16.418 12.6045,-34.3839 6.273,-54.0352 -1.7837,-5.5674 -4.5088,-10.958 -8.0767,-16.0937 2.5977,-2.0586 5.3613,-4.6758 8.0767,-8.253 15.604,-23.4248 -1.4116,-42.4209 -7.7827,-49.5556 -0.4209,-0.4903 -0.9209,-1.0197 -1.3228,-1.4512 0.8525,-1.2734 1.6763,-2.5576 2.5288,-3.832 9.7617,-14.8497 19.4263,-33.3057 16.917,-57.5147 -0.0781,-0.7939 -0.3725,-2.2441 -0.5098,-3.0976 C 66.3457,561.3425 42.9497,552.2077 27.5029,546.1306 19.7597,543.112 12.4677,540.279 9.1054,536.6921 8.3803,535.8005 7.6845,533.8493 7.6845,532.0954 l 89.4082,-95.1719 c 12.3887,-13.1728 24.6109,-26.3457 36.7159,-39.5288 1.6464,-1.8032 2.9892,-3.9106 3.9301,-6.165 l 4.2242,-10.3208 c 9.145,-23.5723 -0.4898,-41.607 -7.5176,-54.8189 l -3.166,-6.1357 c -1.0879,-2.2153 -2.1465,-4.4795 -2.8321,-6.8218 -0.706,-2.4604 -0.9218,-4.5576 -0.9707,-4.646 4.4009,-20.6611 11.0562,-40.999 20.3086,-62.1699 7.7627,-17.8482 17.3975,-36.0396 28.5615,-54.084 10.2618,-16.5742 21.7393,-33.0112 35.1475,-50.3989 10.3208,-13.3784 21.0928,-26.4634 30.3154,-37.3921 10.7325,-9.5855 22.4258,-18.7305 34.7168,-27.1694 5.1455,-3.4991 10.419,-6.8609 15.7408,-10.1441 6.9785,-4.2344 13.9965,-8.2236 21.1909,-11.9385 22.1211,-11.4379 46.0366,-21.0337 71.1572,-28.4336 47.1743,-14.0258 98.6411,-20.7299 151.48,-19.8769 67.8935,5.459 124.3301,16.3486 172.5234,33.2949 8.0469,2.813 16.0254,5.8516 23.8272,9.0469 10.3222,4.3613 20.5254,9.0762 30.4922,14.2119 21.4062,11.0757 41.4121,23.9448 60.0136,38.7056 4.9805,3.6655 9.7227,7.4297 14.252,11.3403 7.4687,6.4102 14.4471,13.2119 20.9355,20.3477 9.0371,9.9873 17.5156,21.0922 25.1602,33.0698 23.377,36.5493 39.1758,80.7241 48.3203,135.0332 0.9414,5.4497 1.7441,10.9092 2.5,16.2114 l 2.4687,22.6709 c 3.715,43.5767 1.2266,83.439 -7.4472,118.5278 -0.9805,3.9991 -2.0684,7.8506 -3.2051,11.7715 -1.5977,5.312 -3.3242,10.6441 -5.8613,17.7896 -5.2832,19.8081 -13.5957,39.8227 -25.4746,61.102 -3.2246,5.7725 -6.6446,11.4473 -10.1446,17.0439 -2.9492,4.7148 -5.9394,9.4297 -9.0761,14.1143 -8.7911,13.0752 -18.2207,25.9053 -27.9141,38.6368 -6.3125,8.3808 -12.8106,16.6728 -19.25,25.0527 -18.9844,24.4931 -38.6758,49.8301 -55.584,76.2646 -15.25,23.6993 -26.6582,45.7921 -34.9316,67.5118 -6.293,16.2802 -10.8897,32.7656 -13.9375,51.0156 -0.6465,9.3808 -1.1964,21.5146 -1.6563,35.1972 -0.9023,25.3457 -1.6074,55.9161 -2.1562,82.92 l -0.167,8.8994 c -0.3037,15.2998 3.8221,36.5293 3.6455,36.5293"
   id="path1323" />
		<path
   fill="#ffab00"
   d="m 378.4799,221.5485 c 6.1944,0 12.2124,0.647 18.1226,1.6758 7.6943,-68.5898 65.8164,-121.9287 136.4839,-121.9287 58.9648,0 109.0791,37.1963 128.6133,89.3296 8.3213,-2.1563 17.0058,-3.4404 26.0127,-3.4404 56.9072,0 103.0615,46.1645 103.0615,103.081 0,13.8296 -2.7539,26.9732 -7.6738,38.9995 34.2851,11.2617 59.2187,43.1656 59.2187,81.2534 0,47.4483 -38.4492,85.8995 -85.8887,85.8995 -56.9464,0 -120.2627,46.1547 -120.2627,103.0708 v 0 -103.0708 c 0,-37.9512 -30.7763,-68.7178 -68.7177,-68.7178 H 378.4799 c -56.9067,0 -103.0615,-46.1543 -103.0615,-103.0708 0,-56.9365 46.1548,-103.0811 103.0615,-103.0811 z"
   id="path1325"
   style="fill:#6f9a41;fill-opacity:1" />
	</g><g
   id="g1338"
   transform="translate(2.4976827,3.8257519)">
		<path
   fill="#43525b"
   d="m 944.2153,342.9875 -2.5,-22.6904 c -0.7637,-5.3614 -1.5684,-10.8599 -2.5,-16.2994 -9.3789,-55.623 -25.709,-101.062 -49.9277,-138.9248 -8.0079,-12.5161 -16.9258,-24.229 -26.5411,-34.8632 -6.8515,-7.5474 -14.3105,-14.7906 -22.1328,-21.5142 -4.7929,-4.1362 -9.83,-8.1353 -14.4961,-11.5361 C 807.2796,82.1828 786.5199,68.7941 764.4087,57.3464 754.2544,52.112 743.8559,47.2995 733.1909,42.801 725.2514,39.5368 717.146,36.4597 709.0014,33.6169 660.4653,16.5529 603.8911,5.5949 534.7426,0.0671 480.7963,-0.7562 429.1728,5.9968 381.3027,20.238 c -25.562,7.5376 -50.0557,17.3291 -72.7754,29.081 -7.439,3.8223 -14.6821,7.939 -21.9551,12.3692 -5.4394,3.3423 -10.8105,6.7827 -16.1718,10.4189 -12.6929,8.7036 -24.7388,18.1421 -35.8047,28.0318 -0.6958,0.6176 -1.3428,1.2939 -1.9405,1.9995 -9.1841,10.8501 -19.8574,23.8271 -30.0903,37.0981 -13.5454,17.5444 -25.1206,34.148 -35.3926,50.7515 -11.4677,18.5244 -21.269,37.0981 -29.1098,55.1621 -9.5762,21.8965 -16.4473,42.9595 -21.0147,64.3755 -0.5293,2.4995 -0.5781,5.0576 -0.1567,7.5469 0.1762,1.186 0.5981,3.8325 1.48,6.871 0.9902,3.3321 2.4209,6.5669 4.166,10.1343 l 3.2343,6.273 c 7.1646,13.4477 11.4673,23.2588 6.4297,36.2553 l -4.1367,10.0757 c -11.7417,12.7813 -23.5723,25.5425 -35.5981,38.3135 L 5.4399,517.6188 C 1.9506,521.3337 0,526.2536 0,531.3601 c 0,6.1943 2.1855,12.5947 6.832,18.2402 6.3706,6.7822 15.5054,10.3408 25.2773,14.1533 16.2803,6.4004 28.0909,12.2031 31.9131,29.4434 1.7842,17.2207 -5.332,30.7959 -13.1435,42.705 l -2.5088,3.793 c -5.0967,7.6055 -3.0781,19.1426 3.0283,25.9736 10.458,11.7217 10.1641,17.1719 6.5669,22.6514 -1.3228,1.7442 -2.7246,3.1758 -4.4009,4.5078 -8.3017,6.5869 -10.0361,18.4961 -3.9795,27.1895 2.3526,3.3711 4.1074,6.8515 5.2344,10.3398 3.9204,12.1543 0.6465,24.21 -5.4497,38.4903 l -3.2344,7.5175 c -7.6157,17.1524 -15.4863,34.8926 -8.5962,54.7404 7.0869,18.9375 27.1406,22.5829 44.6651,25.7685 l 7.2041,1.3623 c 16.3584,3.5479 33.0991,5.3028 48.0166,6.8614 11.6445,1.2343 23.2295,2.4492 34.3637,4.332 l 9.2036,1.666 c 18.6031,3.8711 32.4717,8.8701 44.959,16.2109 1.6367,0.9707 3.4107,1.6964 5.2534,2.1563 39.0976,9.9004 43.6749,66.9043 42.9205,100.0039 -0.2549,11.0859 8.5171,20.2793 19.6025,20.5234 0.1567,0.01 0.3135,0.01 0.4707,0.01 10.8691,0 19.8086,-8.6836 20.0532,-19.6113 2.3228,-101.5038 -41.7832,-130.7607 -70.354,-139.0625 -15.5937,-8.8008 -33.0996,-15.0352 -55.2207,-19.6319 l -9.9487,-1.8036 c -12.2026,-2.0587 -24.6011,-3.3906 -37.2749,-4.7343 -17.1719,-1.793 -30.3447,-3.293 -44.0274,-6.253 l -7.8706,-1.499 c -2.8227,-0.5098 -10.1049,-1.834 -14.4765,-3.1172 0.4995,-4.9297 3.8423,-12.8203 7.8413,-21.8379 l 3.3515,-7.7822 c 7.959,-18.6514 14.9766,-41.1553 6.7632,-66.6299 -0.6958,-2.1562 -1.4995,-4.293 -2.4013,-6.4101 9.6054,-14.418 16.3388,-36.3438 -0.98,-62.1211 8.9682,-15.4561 16.8974,-35.4122 14.2998,-60.4248 -0.1074,-1.128 -0.4605,-3.1172 -0.8916,-5.3125 -7.9194,-35.6084 -34.8731,-48.752 -52.2608,-55.7901 l 70.9131,-75.48 c 12.1241,-12.8891 24.0718,-25.768 35.9317,-38.686 3.205,-3.499 5.7431,-7.498 7.5859,-11.938 l 4.2539,-10.3896 c 12.2227,-31.5015 -0.6074,-55.6031 -8.1938,-69.8448 l -2.8619,-5.5473 c -0.3627,-0.7354 -0.7451,-1.4702 -1.1469,-2.5874 3.9887,-17.2603 9.7524,-34.4029 17.5835,-52.3101 7.0962,-16.3486 15.9863,-33.1973 26.4443,-50.0752 9.5366,-15.4175 20.3379,-30.9136 33.0303,-47.3603 9.5176,-12.3203 19.417,-24.3955 28.042,-34.6084 9.5171,-8.4195 19.8476,-16.4761 30.6289,-23.8765 4.7637,-3.2246 9.6445,-6.3511 14.5063,-9.3403 6.3804,-3.8814 12.8003,-7.5279 19.4165,-10.9385 20.4947,-10.605 42.6065,-19.436 65.7671,-26.2676 43.9888,-13.0849 91.4756,-19.3086 140.1104,-18.5835 64.3652,5.1851 117.6455,15.437 162.9277,31.3643 7.4883,2.6074 14.9082,5.4302 22.0039,8.3511 9.5664,4.038 19.0244,8.3994 28.2393,13.1533 19.789,10.2422 38.3515,22.2099 55.7793,36.0493 4.4199,3.2344 8.6347,6.5864 12.662,10.0561 6.5977,5.6753 12.8496,11.752 18.5742,18.0542 8.0957,8.9488 15.6621,18.8872 22.4746,29.5415 21.25,33.2168 35.6875,73.7652 44.1543,124.0069 0.8828,5.126 1.627,10.2324 2.2559,14.5845 l 2.3711,21.5727 c 3.4296,40.2246 1.166,76.8525 -6.7442,108.854 -0.8906,3.6167 -1.8808,7.1157 -2.8711,10.5166 -1.4609,4.8814 -3.039,9.7817 -5.8613,17.9072 -4.7441,17.7798 -12.2422,35.7261 -22.9551,54.898 -2.959,5.332 -6.1055,10.5361 -9.3105,15.6719 -2.7735,4.4111 -5.5664,8.831 -8.4981,13.1933 -7.5273,11.1826 -15.9375,22.8174 -26.5625,36.7256 -4.2715,5.6846 -8.6347,11.3301 -13.0058,16.9854 l -6.3321,8.1943 c -18.5136,23.8857 -37.6562,48.585 -54.338,74.6768 -15.5752,24.1992 -27.3163,46.9091 -35.8437,69.3349 -6.7637,17.4756 -11.5469,35.0108 -14.8691,55.5049 -0.6465,9.3213 -1.1954,21.3672 -1.6563,34.9316 -0.8828,24.7784 -1.5684,54.6426 -2.1074,81.0674 l -0.1563,8.6358 c -0.2656,13.662 2.4395,30.4716 3.7041,38.3613 l 19.917,-2.4102 -15.1631,-13.1543 30.4434,26.17 c 6.0381,-7.0957 4.8428,-14.5547 4.1943,-18.5635 -0.7832,-4.832 -3.1562,-19.5635 -2.9502,-29.6494 l 0.1573,-8.625 c 0.5195,-26.17 1.205,-55.8184 2.0879,-80.4395 0.4414,-13.0361 0.9511,-24.5918 1.3535,-31.6289 2.6465,-15.8691 6.7324,-30.8262 12.5254,-45.8223 7.5664,-19.8867 18.0742,-40.166 32.1484,-62.0322 15.7402,-24.6113 34.3145,-48.5752 53.1035,-72.8144 l 5.5488,-7.1944 c 4.4688,-5.7832 8.9279,-11.5556 13.2305,-17.2607 11.0371,-14.457 19.8867,-26.7178 27.8945,-38.5977 3.1661,-4.7236 6.1758,-9.4775 9.1934,-14.2802 3.5879,-5.754 7.0879,-11.5557 10.3613,-17.4366 12.3399,-22.0927 21.0625,-43.0576 26.1895,-62.5332 2.627,-7.351 4.3808,-12.8398 6.0566,-18.4463 1.1856,-4.0673 2.3125,-8.0957 3.3418,-12.2514 8.969,-36.2751 11.5862,-77.2942 7.7346,-122.3801 z"
   id="path1328" />
		<path
   fill="#43525b"
   d="m 852.563,413.0378 c 0,-37.9707 -20.7403,-72.1675 -53.2032,-90.1924 2.0196,-8.7915 3.0391,-17.7793 3.0391,-26.875 0,-70.7954 -61.3965,-128.1138 -133.7793,-119.6064 -25.9639,-51.0943 -79.1172,-84.3995 -137.1309,-84.3995 -71.6967,0 -132.7885,49.1148 -149.3628,117.0772 -66.5019,-0.5391 -121.5273,53.6235 -121.5273,120.3804 0,66.3945 54.0156,120.4101 120.4004,120.4101 h 183.9321 c 25.8262,0 46.8311,20.9946 46.8311,46.8111 v 100.3271 c 0,11.085 8.9873,20.0732 20.0722,20.0732 11.086,0 20.0743,-8.9882 20.0743,-20.0732 0,-44.459 53.0449,-80.2539 96.9648,-80.2539 57.1719,0 103.6895,-46.5073 103.6895,-103.6787 z m -200.6543,101.415 v -17.8095 c 0,-47.9483 -39.0196,-86.9576 -86.9776,-86.9576 H 380.999 c -44.2534,0 -80.2539,-36.0102 -80.2539,-80.2636 0,-44.2432 36.0005,-80.2437 80.2539,-80.2437 4.499,0 9.125,0.4312 14.1533,1.3135 5.4395,0.9604 11.0557,-0.3726 15.5054,-3.6953 4.4399,-3.3223 7.3022,-8.3311 7.9194,-13.8296 6.459,-57.4946 54.9956,-100.856 112.9116,-100.856 47.0664,0 89.8194,29.708 106.3838,73.9219 3.6162,9.6152 13.8887,14.9272 23.8272,12.3989 7.0566,-1.8232 13.6924,-2.7153 20.289,-2.7153 44.253,0 80.2637,36.0005 80.2637,80.2539 0,10.4385 -2.0195,20.6611 -5.9883,30.394 -2.1074,5.1553 -1.9707,10.9478 0.3614,16.0054 2.3339,5.0576 6.666,8.9195 11.9589,10.6543 26.2188,8.6055 43.8321,32.7266 43.8321,60.0137 0,35.0303 -28.5039,63.5322 -63.543,63.5322 -34.0996,0 -70.3154,14.2905 -96.9648,37.8828 z"
   id="path1330" />
		<rect
   x="531.48871"
   y="292.63791"
   fill="#43525b"
   width="33.442402"
   height="40.1465"
   id="rect1332" />
		<rect
   x="464.60449"
   y="292.63791"
   fill="#43525b"
   width="33.432098"
   height="40.1465"
   id="rect1334" />
		<rect
   x="598.3833"
   y="292.63791"
   fill="#43525b"
   width="33.451099"
   height="40.1465"
   id="rect1336" />
	</g>
</svg>
